<svg width="136" height="28" viewBox="0 0 136 28" fill="none" xmlns="http://www.w3.org/2000/svg">
<path d="M81.4696 17.0696H78.3509L74.7946 12.5066H86.7944V27.4345H82.1967V24.0957C81.4038 25.1464 80.3432 26.0035 79.0145 26.667C77.6857 27.3305 76.1398 27.6622 74.3762 27.6622C71.8454 27.6622 69.6156 27.0995 67.6875 25.9741C65.7572 24.8479 64.2623 23.2485 63.2017 21.176C62.1417 19.1035 61.6114 16.7113 61.6114 13.9994C61.6114 11.2626 62.1499 8.8642 63.2264 6.80417C64.2552 4.78932 65.8592 3.12614 67.8339 2.02599C69.8405 0.900587 72.198 0.337891 74.9065 0.337891C77.0298 0.337891 78.9349 0.747158 80.6223 1.56571C82.2614 2.34265 83.6697 3.53371 84.7094 5.02152C85.5556 6.24719 86.144 7.62819 86.4435 9.08051H80.6119C80.2094 8.05171 79.6012 7.20292 78.7874 6.53421C77.7126 5.65183 76.3712 5.21061 74.7623 5.21061C73.28 5.21061 71.9891 5.58131 70.8906 6.32273C69.7922 7.06418 68.9488 8.10079 68.3609 9.43271C67.7725 10.7646 67.4786 12.2868 67.4786 13.9994C67.4863 16.6342 68.1328 18.7577 69.4193 20.3699C70.7058 21.9821 72.487 22.7882 74.7623 22.7882C76.4228 22.789 77.9204 22.3743 79.1696 21.426C80.0986 20.7213 81.2343 19.6352 81.4696 17.4154V17.0696Z" fill="#040804"/>
<path d="M91.1025 0.56543V27.4357H109.54V22.4821H96.8529V16.4773H106.819V11.5237H96.8529V5.51901H109.54V0.56543H91.1025Z" fill="#040804"/>
<path fill-rule="evenodd" clip-rule="evenodd" d="M127.331 17.3045C130.912 17.0906 132.425 15.3751 133.239 14.0577C134.053 12.7403 134.467 11.2239 134.467 9.50968C134.467 7.71834 134.057 6.14468 133.239 4.78873C132.415 3.42711 131.208 2.33918 129.77 1.66134C128.279 0.932359 126.56 0.567871 124.614 0.567871H113.69V27.4343H119.439V18.4154H121.856L128.895 27.4343H135.232L127.331 17.3045ZM119.439 13.6161V5.3647H124.154C125.509 5.3647 126.589 5.73583 127.394 6.47804C128.199 7.22032 128.602 8.23085 128.602 9.50968C128.602 10.7636 128.199 11.7613 127.394 12.5027C126.589 13.2442 125.509 13.6152 124.154 13.6161H119.439Z" fill="#040804"/>
<path d="M52.2538 0.567871H58.003V27.4319H52.2538V0.567871Z" fill="#040804"/>
<path d="M0 0.56543V27.4357H18.4383V22.4821H5.75056V16.4773H15.7171V11.5238H5.75056V5.51901H18.4383V0.56543H0Z" fill="#040804"/>
<path d="M42.4774 0.56543L38.5638 5.58032L41.9979 9.98018L49.3452 0.56548L42.4774 0.56543Z" fill="#040804"/>
<path d="M21.5033 27.4441L31.9924 14.0032L21.5058 0.56543H28.372L38.8599 14.0048L28.372 27.4441H21.5033Z" fill="#040804"/>
<path d="M41.9982 18.0293L49.3452 27.4443H42.4739L38.5623 22.4318L41.9982 18.0293Z" fill="#040804"/>
</svg>
